<?xml version="1.0" encoding="UTF-8"?>
<!-- Created with Inkscape (http://www.inkscape.org/) -->
<svg width="1024" height="1024" version="1.1" viewBox="0 0 256 256" xmlns="http://www.w3.org/2000/svg">
 <g display="none" fill="none" stroke="#000" stroke-dasharray="2, 0.5" stroke-width=".5">
  <circle cx="128" cy="128" r="128" stroke-linejoin="bevel" style="paint-order:markers stroke fill"/>
  <path d="m0 0 256 256"/>
 </g>
 <path d="m92 48a44 44 0 0 0-44 44 44 44 0 0 0 44 44 44 44 0 0 0 44-44 44 44 0 0 0-44-44zm-10.75 16.219a17.531 17.531 0 0 1 17.531 17.531 17.531 17.531 0 0 1-17.531 17.531 17.531 17.531 0 0 1-17.531-17.531 17.531 17.531 0 0 1 17.531-17.531z" style="paint-order:markers stroke fill"/>
 <path d="m138.61 16.513a92 92 0 0 1 53.388 83.487 92 92 0 0 1-92 92 92 92 0 0 1-83.206-52.903 112 112 0 0 0 111.21 100.9 112 112 0 0 0 112-112 112 112 0 0 0-101.39-111.49z" style="paint-order:markers stroke fill"/>
 <rect x="16" y="16" width="224" height="224" fill="none" style="paint-order:markers stroke fill"/>
</svg>
